<?xml version="1.0" encoding="UTF-8" standalone="no"?>
<!-- Created with Inkscape (http://www.inkscape.org/) -->

<svg
   xmlns:dc="http://purl.org/dc/elements/1.1/"
   xmlns:cc="http://creativecommons.org/ns#"
   xmlns:rdf="http://www.w3.org/1999/02/22-rdf-syntax-ns#"
   xmlns:svg="http://www.w3.org/2000/svg"
   xmlns="http://www.w3.org/2000/svg"
   xmlns:xlink="http://www.w3.org/1999/xlink"
   xmlns:sodipodi="http://sodipodi.sourceforge.net/DTD/sodipodi-0.dtd"
   xmlns:inkscape="http://www.inkscape.org/namespaces/inkscape"
   width="210mm"
   height="297mm"
   id="svg2"
   version="1.1"
   inkscape:version="0.48.2 r9819"
   sodipodi:docname="icon.svg">
  <defs
     id="defs4">
    <linearGradient
       id="linearGradient4042">
      <stop
         style="stop-color:#ff7a8b;stop-opacity:1"
         offset="0"
         id="stop4044" />
      <stop
         style="stop-color:#ffe316;stop-opacity:1"
         offset="1"
         id="stop4046" />
    </linearGradient>
    <linearGradient
       inkscape:collect="always"
       xlink:href="#linearGradient4042"
       id="linearGradient4048"
       x1="830.98645"
       y1="1316.907"
       x2="826.65112"
       y2="2333.1204"
       gradientUnits="userSpaceOnUse" />
  </defs>
  <sodipodi:namedview
     id="base"
     pagecolor="#ffffff"
     bordercolor="#666666"
     borderopacity="1.0"
     inkscape:pageopacity="0.0"
     inkscape:pageshadow="2"
     inkscape:zoom="0.35"
     inkscape:cx="-711.98822"
     inkscape:cy="-2501.0329"
     inkscape:document-units="px"
     inkscape:current-layer="g4633"
     showgrid="false"
     inkscape:window-width="1320"
     inkscape:window-height="856"
     inkscape:window-x="4"
     inkscape:window-y="0"
     inkscape:window-maximized="0"
     showguides="true"
     inkscape:guide-bbox="true" />
  <metadata
     id="metadata7">
    <rdf:RDF>
      <cc:Work
         rdf:about="">
        <dc:format>image/svg+xml</dc:format>
        <dc:type
           rdf:resource="http://purl.org/dc/dcmitype/StillImage" />
        <dc:title></dc:title>
      </cc:Work>
    </rdf:RDF>
  </metadata>
  <g
     inkscape:label="レイヤー 1"
     inkscape:groupmode="layer"
     id="layer1">
    <rect
       style="fill:#ececec;fill-opacity:1;stroke:none"
       id="rect2995"
       width="1391.4286"
       height="1282.8572"
       x="-1251.4286"
       y="-290.49496" />
    <rect
       style="opacity:0;fill:#e0fc66;fill-opacity:0.49019608;stroke:none"
       id="rect3792"
       width="862.85712"
       height="331.42856"
       x="11.428572"
       y="540.93359"
       rx="30"
       ry="30" />
    <g
       id="g3778">
      <rect
         ry="0"
         rx="0"
         y="-124.9235"
         x="-2498.1423"
         height="1024"
         width="1024"
         id="rect3004"
         style="fill:#66ccfc;fill-opacity:0.49019608;stroke:none" />
      <text
         sodipodi:linespacing="98.000002%"
         id="text3839"
         y="335.82336"
         x="-2458.4861"
         style="font-size:40px;font-style:normal;font-weight:normal;line-height:98.00000191%;letter-spacing:0px;word-spacing:0px;fill:#000000;fill-opacity:1;stroke:none;font-family:Sans"
         xml:space="preserve"><tspan
           style="font-size:320px;font-style:italic;font-variant:normal;font-weight:bold;font-stretch:normal;text-align:start;line-height:98.00000191%;text-anchor:start;fill:#000000;fill-opacity:1;font-family:Baskerville;-inkscape-font-specification:Baskerville Bold Italic"
           y="335.82336"
           x="-2458.4861"
           id="tspan3841"
           sodipodi:role="line">Word</tspan><tspan
           style="font-size:320px;font-style:italic;font-variant:normal;font-weight:bold;font-stretch:normal;text-align:start;line-height:98.00000191%;text-anchor:start;fill:#000000;fill-opacity:1;font-family:Baskerville;-inkscape-font-specification:Baskerville Bold Italic"
           id="tspan3843"
           y="649.4234"
           x="-2458.4861"
           sodipodi:role="line">Count</tspan></text>
    </g>
    <rect
       ry="0"
       rx="0"
       y="-116.35207"
       x="-1043.8567"
       height="1024"
       width="1024"
       id="rect2993"
       style="fill:#ffffff;fill-opacity:1;stroke:none"
       inkscape:export-filename="/Users/shoma2da/Desktop/icon2.png"
       inkscape:export-xdpi="90"
       inkscape:export-ydpi="90" />
    <g
       id="g3902"
       transform="translate(-17.684814,26.194102)"
       style="opacity:1">
      <g
         transform="translate(62.629456,-42.453493)"
         id="g3816">
        <rect
           rx="30"
           style="fill:#0011ff;fill-opacity:1;stroke:none"
           id="rect3810"
           width="14.285713"
           height="202.85715"
           x="-809.26489"
           y="202.95392"
           ry="10" />
        <path
           sodipodi:type="arc"
           style="fill:#0011ff;fill-opacity:1;stroke:none"
           id="path3814"
           sodipodi:cx="-808.12201"
           sodipodi:cy="185.65131"
           sodipodi:rx="26.263966"
           sodipodi:ry="26.263966"
           d="m -781.85804,185.65131 c 0,14.50518 -11.75878,26.26396 -26.26397,26.26396 -14.50519,0 -26.26396,-11.75878 -26.26396,-26.26396 0,-14.50519 11.75877,-26.26397 26.26396,-26.26397 14.50519,0 26.26397,11.75878 26.26397,26.26397 z"
           transform="translate(6,0)" />
      </g>
      <path
         id="rect3880"
         d="m -743.46875,159.40625 0,200 -189.90625,0 0,350 c 0,27.7 22.3,50 50,50 l 580.34375,0 0,-200 208.0625,0 0,-350 c 0,-27.7 -22.3,-50 -50,-50 l -598.5,0 z"
         style="opacity:0.22000001999999999;fill:#0091ff;fill-opacity:1;stroke:none"
         inkscape:connector-curvature="0" />
      <g
         id="g3896"
         transform="matrix(-1,0,0,-1,-1103.2083,961.15112)">
        <rect
           ry="10"
           y="202.95392"
           x="-809.26489"
           height="202.85715"
           width="14.285713"
           id="rect3898"
           style="fill:#0011ff;fill-opacity:1;stroke:none"
           rx="30" />
        <path
           transform="translate(6,0)"
           d="m -781.85804,185.65131 c 0,14.50518 -11.75878,26.26396 -26.26397,26.26396 -14.50519,0 -26.26396,-11.75878 -26.26396,-26.26396 0,-14.50519 11.75877,-26.26397 26.26396,-26.26397 14.50519,0 26.26397,11.75878 26.26397,26.26397 z"
           sodipodi:ry="26.263966"
           sodipodi:rx="26.263966"
           sodipodi:cy="185.65131"
           sodipodi:cx="-808.12201"
           id="path3900"
           style="fill:#0011ff;fill-opacity:1;stroke:none"
           sodipodi:type="arc" />
      </g>
    </g>
    <path
       style="opacity:0.6;fill:#333333;fill-opacity:1;stroke:none"
       d="m -705.80981,-36.662029 c -11.08,0 -20,8.92 -20,20 l 0,109.5 c 0,11.079999 8.92,19.999999 20,19.999999 l 135.65625,0 c 11.19272,23.31243 32.13927,56.1875 38.3125,56.1875 6.17337,0 27.11997,-32.87497 38.3125,-56.1875 l 135.625,0 c 11.08,0 20,-8.92 20,-19.999999 l 0,-109.5 c 0,-11.08 -8.92,-20 -20,-20 l -347.90625,0 z"
       id="rect3911"
       inkscape:connector-curvature="0" />
    <rect
       inkscape:export-ydpi="90"
       inkscape:export-xdpi="90"
       inkscape:export-filename="/Users/shoma2da/Desktop/icon3.png"
       style="fill:#ffff8b;fill-opacity:1;stroke:none"
       id="rect3998"
       width="1024"
       height="1024"
       x="269.34161"
       y="-110.29116"
       rx="0"
       ry="0" />
    <g
       transform="translate(1295.5135,32.255017)"
       id="g4000"
       inkscape:export-filename="/Users/shoma2da/Desktop/icon3.png"
       inkscape:export-xdpi="90"
       inkscape:export-ydpi="90">
      <path
         id="path4018"
         d="m -743.46875,159.40625 0,200 -189.90625,0 0,350 c 0,27.7 22.3,50 50,50 l 580.34375,0 0,-200 208.0625,0 0,-350 c 0,-27.7 -22.3,-50 -50,-50 l -598.5,0 z"
         style="opacity:1;fill:#ffffff;fill-opacity:1;stroke:none"
         inkscape:connector-curvature="0" />
      <g
         id="g4002"
         transform="translate(62.629456,-42.453493)">
        <rect
           ry="10"
           y="202.95392"
           x="-809.26489"
           height="202.85715"
           width="14.285713"
           id="rect4004"
           style="fill:#0011ff;fill-opacity:1;stroke:none"
           rx="30" />
        <path
           transform="translate(6,0)"
           d="m -781.85804,185.65131 c 0,14.50518 -11.75878,26.26396 -26.26397,26.26396 -14.50519,0 -26.26396,-11.75878 -26.26396,-26.26396 0,-14.50519 11.75877,-26.26397 26.26396,-26.26397 14.50519,0 26.26397,11.75878 26.26397,26.26397 z"
           sodipodi:ry="26.263966"
           sodipodi:rx="26.263966"
           sodipodi:cy="185.65131"
           sodipodi:cx="-808.12201"
           id="path4006"
           style="fill:#0011ff;fill-opacity:1;stroke:none"
           sodipodi:type="arc" />
      </g>
      <path
         inkscape:connector-curvature="0"
         style="opacity:0.22000002;fill:#0091ff;fill-opacity:1;stroke:none"
         d="m -743.46875,159.40625 0,200 -189.90625,0 0,350 c 0,27.7 22.3,50 50,50 l 580.34375,0 0,-200 208.0625,0 0,-350 c 0,-27.7 -22.3,-50 -50,-50 l -598.5,0 z"
         id="path4008" />
      <g
         transform="matrix(-1,0,0,-1,-1103.2083,961.15112)"
         id="g4010">
        <rect
           rx="30"
           style="fill:#0011ff;fill-opacity:1;stroke:none"
           id="rect4012"
           width="14.285713"
           height="202.85715"
           x="-809.26489"
           y="202.95392"
           ry="10" />
        <path
           sodipodi:type="arc"
           style="fill:#0011ff;fill-opacity:1;stroke:none"
           id="path4014"
           sodipodi:cx="-808.12201"
           sodipodi:cy="185.65131"
           sodipodi:rx="26.263966"
           sodipodi:ry="26.263966"
           d="m -781.85804,185.65131 c 0,14.50518 -11.75878,26.26396 -26.26397,26.26396 -14.50519,0 -26.26396,-11.75878 -26.26396,-26.26396 0,-14.50519 11.75877,-26.26397 26.26396,-26.26397 14.50519,0 26.26397,11.75878 26.26397,26.26397 z"
           transform="translate(6,0)" />
      </g>
    </g>
    <path
       inkscape:connector-curvature="0"
       id="path4016"
       d="m 607.3885,-30.601114 c -11.08,0 -20,8.92 -20,20 l 0,109.5 c 0,11.080004 8.92,20.000004 20,20.000004 l 135.65625,0 c 11.19272,23.31243 32.13927,56.1875 38.3125,56.1875 6.17337,0 27.11997,-32.87497 38.3125,-56.1875 l 135.625,0 c 11.08,0 20,-8.92 20,-20.000004 l 0,-109.5 c 0,-11.08 -8.92,-20 -20,-20 l -347.90625,0 z"
       style="opacity:0.6;fill:#333333;fill-opacity:1;stroke:none"
       inkscape:export-filename="/Users/shoma2da/Desktop/icon3.png"
       inkscape:export-xdpi="90"
       inkscape:export-ydpi="90" />
    <rect
       ry="0"
       rx="0"
       y="1309.9833"
       x="289.54468"
       height="1024"
       width="1024"
       id="rect4020"
       style="fill:url(#linearGradient4048);fill-opacity:1;stroke:none"
       inkscape:export-filename="/Users/shoma2da/Desktop/icon4.png"
       inkscape:export-xdpi="90"
       inkscape:export-ydpi="90" />
    <path
       inkscape:connector-curvature="0"
       id="path4052"
       d="m 627.59155,1389.6734 c -11.08,0 -20,8.92 -20,20 l 0,109.5 c 0,11.08 8.92,20 20,20 l 135.65625,0 c 11.19272,23.3124 32.13927,56.1875 38.3125,56.1875 6.17337,0 27.11997,-32.875 38.3125,-56.1875 l 135.625,0 c 11.08,0 20,-8.92 20,-20 l 0,-109.5 c 0,-11.08 -8.92,-20 -20,-20 l -347.90625,0 z"
       style="opacity:1;fill:#ffffff;fill-opacity:1;stroke:none"
       inkscape:export-filename="/Users/shoma2da/Desktop/icon4.png"
       inkscape:export-xdpi="90"
       inkscape:export-ydpi="90" />
    <g
       inkscape:export-ydpi="90"
       inkscape:export-xdpi="90"
       inkscape:export-filename="/Users/shoma2da/Desktop/icon4.png"
       id="g4022"
       transform="translate(1315.7166,1452.5295)">
      <path
         inkscape:connector-curvature="0"
         style="fill:#ffffff;fill-opacity:1;stroke:none"
         d="m -743.46875,159.40625 0,200 -189.90625,0 0,350 c 0,27.7 22.3,50 50,50 l 580.34375,0 0,-200 208.0625,0 0,-350 c 0,-27.7 -22.3,-50 -50,-50 l -598.5,0 z"
         id="path4024" />
      <g
         transform="translate(62.629456,-42.453493)"
         id="g4026">
        <rect
           rx="30"
           style="fill:#0011ff;fill-opacity:1;stroke:none"
           id="rect4028"
           width="14.285713"
           height="202.85715"
           x="-809.26489"
           y="202.95392"
           ry="10" />
        <path
           sodipodi:type="arc"
           style="fill:#0011ff;fill-opacity:1;stroke:none"
           id="path4030"
           sodipodi:cx="-808.12201"
           sodipodi:cy="185.65131"
           sodipodi:rx="26.263966"
           sodipodi:ry="26.263966"
           d="m -781.85804,185.65131 c 0,14.50518 -11.75878,26.26396 -26.26397,26.26396 -14.50519,0 -26.26396,-11.75878 -26.26396,-26.26396 0,-14.50519 11.75877,-26.26397 26.26396,-26.26397 14.50519,0 26.26397,11.75878 26.26397,26.26397 z"
           transform="translate(6,0)" />
      </g>
      <path
         id="path4032"
         d="m -743.46875,159.40625 0,200 -189.90625,0 0,350 c 0,27.7 22.3,50 50,50 l 580.34375,0 0,-200 208.0625,0 0,-350 c 0,-27.7 -22.3,-50 -50,-50 l -598.5,0 z"
         style="opacity:0.22;fill:#0091ff;fill-opacity:1;stroke:none"
         inkscape:connector-curvature="0" />
      <g
         id="g4034"
         transform="matrix(-1,0,0,-1,-1103.2083,961.15112)">
        <rect
           ry="10"
           y="202.95392"
           x="-809.26489"
           height="202.85715"
           width="14.285713"
           id="rect4036"
           style="fill:#0011ff;fill-opacity:1;stroke:none"
           rx="30" />
        <path
           transform="translate(6,0)"
           d="m -781.85804,185.65131 c 0,14.50518 -11.75878,26.26396 -26.26397,26.26396 -14.50519,0 -26.26396,-11.75878 -26.26396,-26.26396 0,-14.50519 11.75877,-26.26397 26.26396,-26.26397 14.50519,0 26.26397,11.75878 26.26397,26.26397 z"
           sodipodi:ry="26.263966"
           sodipodi:rx="26.263966"
           sodipodi:cy="185.65131"
           sodipodi:cx="-808.12201"
           id="path4038"
           style="fill:#0011ff;fill-opacity:1;stroke:none"
           sodipodi:type="arc" />
      </g>
    </g>
    <path
       inkscape:export-ydpi="90"
       inkscape:export-xdpi="90"
       inkscape:export-filename="/Users/shoma2da/Desktop/icon4.png"
       style="opacity:0.6;fill:#333333;fill-opacity:1;stroke:none"
       d="m 627.59155,1389.6734 c -11.08,0 -20,8.92 -20,20 l 0,109.5 c 0,11.08 8.92,20 20,20 l 135.65625,0 c 11.19272,23.3124 32.13927,56.1875 38.3125,56.1875 6.17337,0 27.11997,-32.875 38.3125,-56.1875 l 135.625,0 c 11.08,0 20,-8.92 20,-20 l 0,-109.5 c 0,-11.08 -8.92,-20 -20,-20 l -347.90625,0 z"
       id="path4040"
       inkscape:connector-curvature="0" />
    <rect
       inkscape:export-ydpi="90"
       inkscape:export-xdpi="90"
       inkscape:export-filename="/Users/shoma2da/Desktop/icon5.png"
       style="fill:#fe7a7a;fill-opacity:1;stroke:none"
       id="rect4106"
       width="1024"
       height="1024"
       x="1455.2589"
       y="1309.9833"
       rx="0"
       ry="0" />
    <path
       inkscape:export-ydpi="90"
       inkscape:export-xdpi="90"
       inkscape:export-filename="/Users/shoma2da/Desktop/icon5.png"
       style="fill:#ffffff;fill-opacity:1;stroke:none"
       d="m 1793.3058,1389.6734 c -11.08,0 -20,8.92 -20,20 l 0,109.5 c 0,11.08 8.92,20 20,20 l 135.6563,0 c 11.1927,23.3124 32.1393,56.1875 38.3125,56.1875 6.1734,0 27.12,-32.875 38.3125,-56.1875 l 135.625,0 c 11.08,0 20,-8.92 20,-20 l 0,-109.5 c 0,-11.08 -8.92,-20 -20,-20 l -347.9063,0 z"
       id="path4108"
       inkscape:connector-curvature="0" />
    <g
       transform="translate(2481.4309,1452.5295)"
       id="g4110"
       inkscape:export-filename="/Users/shoma2da/Desktop/icon5.png"
       inkscape:export-xdpi="90"
       inkscape:export-ydpi="90">
      <path
         id="path4112"
         d="m -743.46875,159.40625 0,200 -189.90625,0 0,350 c 0,27.7 22.3,50 50,50 l 580.34375,0 0,-200 208.0625,0 0,-350 c 0,-27.7 -22.3,-50 -50,-50 l -598.5,0 z"
         style="fill:#ffffff;fill-opacity:1;stroke:none"
         inkscape:connector-curvature="0" />
      <g
         id="g4114"
         transform="translate(62.629456,-42.453493)">
        <rect
           ry="10"
           y="202.95392"
           x="-809.26489"
           height="202.85715"
           width="14.285713"
           id="rect4116"
           style="fill:#0011ff;fill-opacity:1;stroke:none"
           rx="30" />
        <path
           transform="translate(6,0)"
           d="m -781.85804,185.65131 c 0,14.50518 -11.75878,26.26396 -26.26397,26.26396 -14.50519,0 -26.26396,-11.75878 -26.26396,-26.26396 0,-14.50519 11.75877,-26.26397 26.26396,-26.26397 14.50519,0 26.26397,11.75878 26.26397,26.26397 z"
           sodipodi:ry="26.263966"
           sodipodi:rx="26.263966"
           sodipodi:cy="185.65131"
           sodipodi:cx="-808.12201"
           id="path4118"
           style="fill:#0011ff;fill-opacity:1;stroke:none"
           sodipodi:type="arc" />
      </g>
      <path
         inkscape:connector-curvature="0"
         style="opacity:0.22;fill:#0091ff;fill-opacity:1;stroke:none"
         d="m -743.46875,159.40625 0,200 -189.90625,0 0,350 c 0,27.7 22.3,50 50,50 l 580.34375,0 0,-200 208.0625,0 0,-350 c 0,-27.7 -22.3,-50 -50,-50 l -598.5,0 z"
         id="path4120" />
      <g
         transform="matrix(-1,0,0,-1,-1103.2083,961.15112)"
         id="g4122">
        <rect
           rx="30"
           style="fill:#0011ff;fill-opacity:1;stroke:none"
           id="rect4124"
           width="14.285713"
           height="202.85715"
           x="-809.26489"
           y="202.95392"
           ry="10" />
        <path
           sodipodi:type="arc"
           style="fill:#0011ff;fill-opacity:1;stroke:none"
           id="path4126"
           sodipodi:cx="-808.12201"
           sodipodi:cy="185.65131"
           sodipodi:rx="26.263966"
           sodipodi:ry="26.263966"
           d="m -781.85804,185.65131 c 0,14.50518 -11.75878,26.26396 -26.26397,26.26396 -14.50519,0 -26.26396,-11.75878 -26.26396,-26.26396 0,-14.50519 11.75877,-26.26397 26.26396,-26.26397 14.50519,0 26.26397,11.75878 26.26397,26.26397 z"
           transform="translate(6,0)" />
      </g>
    </g>
    <path
       inkscape:connector-curvature="0"
       id="path4128"
       d="m 1793.3058,1389.6734 c -11.08,0 -20,8.92 -20,20 l 0,109.5 c 0,11.08 8.92,20 20,20 l 135.6563,0 c 11.1927,23.3124 32.1393,56.1875 38.3125,56.1875 6.1734,0 27.12,-32.875 38.3125,-56.1875 l 135.625,0 c 11.08,0 20,-8.92 20,-20 l 0,-109.5 c 0,-11.08 -8.92,-20 -20,-20 l -347.9063,0 z"
       style="opacity:0.6;fill:#333333;fill-opacity:1;stroke:none"
       inkscape:export-filename="/Users/shoma2da/Desktop/icon5.png"
       inkscape:export-xdpi="90"
       inkscape:export-ydpi="90" />
    <g
       id="g4394"
       inkscape:export-filename="/Users/shoma2da/Desktop/icon6.png"
       inkscape:export-xdpi="90"
       inkscape:export-ydpi="90"
       style="stroke:#00aa0d;stroke-opacity:1">
      <rect
         ry="0"
         rx="0"
         y="-20.014513"
         x="2042.6071"
         height="1024"
         width="1024"
         id="rect4227"
         style="fill:#ffffff;fill-opacity:1;stroke:#00aa0d;stroke-opacity:1"
         inkscape:export-filename="/Users/shoma2da/Desktop/icon2.png"
         inkscape:export-xdpi="90"
         inkscape:export-ydpi="90" />
      <g
         transform="translate(377.23469,165.09214)"
         id="g4249"
         style="stroke:#00aa0d;stroke-opacity:1">
        <g
           transform="matrix(0.84095999,0,0,0.84095999,2609.7704,16.197462)"
           id="g4229"
           style="stroke:#00aa0d;stroke-opacity:1">
          <g
             id="g4231"
             transform="translate(62.629456,-42.453493)"
             style="stroke:#00aa0d;stroke-opacity:1">
            <rect
               ry="11.891172"
               y="202.95392"
               x="-809.26489"
               height="202.85715"
               width="14.285713"
               id="rect4233"
               style="fill:#0011ff;fill-opacity:1;stroke:#00aa0d;stroke-opacity:1"
               rx="35.673515" />
            <path
               transform="translate(6,0)"
               d="m -781.85804,185.65131 c 0,14.50518 -11.75878,26.26396 -26.26397,26.26396 -14.50519,0 -26.26396,-11.75878 -26.26396,-26.26396 0,-14.50519 11.75877,-26.26397 26.26396,-26.26397 14.50519,0 26.26397,11.75878 26.26397,26.26397 z"
               sodipodi:ry="26.263966"
               sodipodi:rx="26.263966"
               sodipodi:cy="185.65131"
               sodipodi:cx="-808.12201"
               id="path4235"
               style="fill:#0011ff;fill-opacity:1;stroke:#00aa0d;stroke-opacity:1"
               sodipodi:type="arc" />
          </g>
          <path
             inkscape:connector-curvature="0"
             style="opacity:0.22000002;fill:#0091ff;fill-opacity:1;stroke:#00aa0d;stroke-opacity:1"
             d="m -743.46875,159.40625 0,200 -189.90625,0 0,350 c 0,27.7 22.3,50 50,50 l 580.34375,0 0,-200 208.0625,0 0,-350 c 0,-27.7 -22.3,-50 -50,-50 l -598.5,0 z"
             id="path4237" />
          <g
             transform="matrix(-1,0,0,-1,-1103.2083,961.15112)"
             id="g4239"
             style="stroke:#00aa0d;stroke-opacity:1">
            <rect
               rx="35.673515"
               style="fill:#0011ff;fill-opacity:1;stroke:#00aa0d;stroke-opacity:1"
               id="rect4241"
               width="14.285713"
               height="202.85715"
               x="-809.26489"
               y="202.95392"
               ry="11.891172" />
            <path
               sodipodi:type="arc"
               style="fill:#0011ff;fill-opacity:1;stroke:#00aa0d;stroke-opacity:1"
               id="path4243"
               sodipodi:cx="-808.12201"
               sodipodi:cy="185.65131"
               sodipodi:rx="26.263966"
               sodipodi:ry="26.263966"
               d="m -781.85804,185.65131 c 0,14.50518 -11.75878,26.26396 -26.26397,26.26396 -14.50519,0 -26.26396,-11.75878 -26.26396,-26.26396 0,-14.50519 11.75877,-26.26397 26.26396,-26.26397 14.50519,0 26.26397,11.75878 26.26397,26.26397 z"
               transform="translate(6,0)" />
          </g>
        </g>
        <path
           inkscape:connector-curvature="0"
           id="path4245"
           d="m 2031.0848,-36.662029 c -9.3178,0 -16.8192,7.501363 -16.8192,16.8192 l 0,92.085119 c 0,9.317836 7.5014,16.819199 16.8192,16.819199 l 114.0815,0 c 9.4127,19.604821 27.0278,47.251441 32.2193,47.251441 5.1915,0 22.8068,-27.64654 32.2192,-47.251441 l 114.0552,0 c 9.3179,0 16.8192,-7.501363 16.8192,-16.819199 l 0,-92.085119 c 0,-9.317837 -7.5013,-16.8192 -16.8192,-16.8192 l -292.5752,0 z"
           style="opacity:0.6;fill:#333333;fill-opacity:1;stroke:#00aa0d;stroke-opacity:1" />
      </g>
      <rect
         inkscape:export-ydpi="90"
         inkscape:export-xdpi="90"
         inkscape:export-filename="/Users/shoma2da/Desktop/icon2.png"
         style="fill:none;stroke:#00aa0d;stroke-width:80;stroke-miterlimit:4;stroke-opacity:1;stroke-dasharray:none"
         id="rect4247"
         width="944"
         height="944"
         x="2082.6072"
         y="19.985487"
         rx="100"
         ry="100" />
      <path
         inkscape:export-ydpi="90"
         inkscape:export-xdpi="90"
         inkscape:export-filename="/Users/shoma2da/Desktop/icon6.png"
         inkscape:connector-curvature="0"
         id="path4280"
         d="m 3066.6071,1003.9855 0,-128.85023 -129.5407,128.85023 129.5407,0 z"
         style="fill:#00aa0d;fill-opacity:1;stroke:#00aa0d;stroke-opacity:1" />
      <path
         inkscape:export-ydpi="90"
         inkscape:export-xdpi="90"
         inkscape:export-filename="/Users/shoma2da/Desktop/icon6.png"
         style="fill:#00aa0d;fill-opacity:1;stroke:#00aa0d;stroke-opacity:1"
         d="m 3066.6071,-20.014513 -129.5407,0 129.5407,128.850213 0,-128.850213 z"
         id="path4278"
         inkscape:connector-curvature="0" />
      <path
         inkscape:export-ydpi="90"
         inkscape:export-xdpi="90"
         inkscape:export-filename="/Users/shoma2da/Desktop/icon6.png"
         inkscape:connector-curvature="0"
         id="rect4266"
         d="m 2042.6071,-20.014513 0,128.850163 129.5407,-128.850163 -129.5407,0 z"
         style="fill:#00aa0d;fill-opacity:1;stroke:#00aa0d;stroke-opacity:1" />
      <path
         inkscape:export-ydpi="90"
         inkscape:export-xdpi="90"
         inkscape:export-filename="/Users/shoma2da/Desktop/icon6.png"
         style="fill:#00aa0d;fill-opacity:1;stroke:#00aa0d;stroke-opacity:1"
         d="m 2042.6071,1003.9855 129.5407,0 -129.5407,-128.85023 0,128.85023 z"
         id="path4282"
         inkscape:connector-curvature="0" />
    </g>
    <rect
       inkscape:export-ydpi="90"
       inkscape:export-xdpi="90"
       inkscape:export-filename="/Users/shoma2da/Desktop/icon2.png"
       style="fill:#ffffff;fill-opacity:1;stroke:none"
       id="rect4507"
       width="1024"
       height="1024"
       x="-1043.8567"
       y="-116.35207"
       rx="0"
       ry="0" />
    <g
       transform="translate(-17.684814,26.194102)"
       id="g4509"
       style="opacity:1">
      <g
         id="g4511"
         transform="translate(62.629456,-42.453493)">
        <rect
           ry="10"
           y="202.95392"
           x="-809.26489"
           height="202.85715"
           width="14.285713"
           id="rect4513"
           style="fill:#0011ff;fill-opacity:1;stroke:none"
           rx="30" />
        <path
           transform="translate(6,0)"
           d="m -781.85804,185.65131 c 0,14.50518 -11.75878,26.26396 -26.26397,26.26396 -14.50519,0 -26.26396,-11.75878 -26.26396,-26.26396 0,-14.50519 11.75877,-26.26397 26.26396,-26.26397 14.50519,0 26.26397,11.75878 26.26397,26.26397 z"
           sodipodi:ry="26.263966"
           sodipodi:rx="26.263966"
           sodipodi:cy="185.65131"
           sodipodi:cx="-808.12201"
           id="path4515"
           style="fill:#0011ff;fill-opacity:1;stroke:none"
           sodipodi:type="arc" />
      </g>
      <path
         inkscape:connector-curvature="0"
         style="opacity:0.22000001999999999;fill:#0091ff;fill-opacity:1;stroke:none"
         d="m -743.46875,159.40625 0,200 -189.90625,0 0,350 c 0,27.7 22.3,50 50,50 l 580.34375,0 0,-200 208.0625,0 0,-350 c 0,-27.7 -22.3,-50 -50,-50 l -598.5,0 z"
         id="path4517" />
      <g
         transform="matrix(-1,0,0,-1,-1103.2083,961.15112)"
         id="g4519">
        <rect
           rx="30"
           style="fill:#0011ff;fill-opacity:1;stroke:none"
           id="rect4521"
           width="14.285713"
           height="202.85715"
           x="-809.26489"
           y="202.95392"
           ry="10" />
        <path
           sodipodi:type="arc"
           style="fill:#0011ff;fill-opacity:1;stroke:none"
           id="path4523"
           sodipodi:cx="-808.12201"
           sodipodi:cy="185.65131"
           sodipodi:rx="26.263966"
           sodipodi:ry="26.263966"
           d="m -781.85804,185.65131 c 0,14.50518 -11.75878,26.26396 -26.26397,26.26396 -14.50519,0 -26.26396,-11.75878 -26.26396,-26.26396 0,-14.50519 11.75877,-26.26397 26.26396,-26.26397 14.50519,0 26.26397,11.75878 26.26397,26.26397 z"
           transform="translate(6,0)" />
      </g>
    </g>
    <path
       inkscape:connector-curvature="0"
       id="path4525"
       d="m -705.80981,-36.662029 c -11.08,0 -20,8.92 -20,20 l 0,109.5 c 0,11.079999 8.92,19.999999 20,19.999999 l 135.65625,0 c 11.19272,23.31243 32.13927,56.1875 38.3125,56.1875 6.17337,0 27.11997,-32.87497 38.3125,-56.1875 l 135.625,0 c 11.08,0 20,-8.92 20,-19.999999 l 0,-109.5 c 0,-11.08 -8.92,-20 -20,-20 l -347.90625,0 z"
       style="opacity:0.6;fill:#333333;fill-opacity:1;stroke:none" />
    <rect
       y="1263.7908"
       x="-1251.4286"
       height="1282.8572"
       width="1391.4286"
       id="rect4527"
       style="fill:#ececec;fill-opacity:1;stroke:none" />
    <rect
       inkscape:export-ydpi="90"
       inkscape:export-xdpi="90"
       inkscape:export-filename="/Users/shoma2da/Desktop/icon2.png"
       style="fill:#ffffff;fill-opacity:1;stroke:none"
       id="rect4529"
       width="1024"
       height="1024"
       x="-1043.8567"
       y="1437.9336"
       rx="0"
       ry="0" />
    <g
       transform="translate(-17.684814,1580.4798)"
       id="g4531">
      <g
         id="g4533"
         transform="translate(62.629456,-42.453493)">
        <rect
           ry="10"
           y="202.95392"
           x="-809.26489"
           height="202.85715"
           width="14.285713"
           id="rect4535"
           style="fill:#0011ff;fill-opacity:1;stroke:none"
           rx="30" />
        <path
           transform="translate(6,0)"
           d="m -781.85804,185.65131 c 0,14.50518 -11.75878,26.26396 -26.26397,26.26396 -14.50519,0 -26.26396,-11.75878 -26.26396,-26.26396 0,-14.50519 11.75877,-26.26397 26.26396,-26.26397 14.50519,0 26.26397,11.75878 26.26397,26.26397 z"
           sodipodi:ry="26.263966"
           sodipodi:rx="26.263966"
           sodipodi:cy="185.65131"
           sodipodi:cx="-808.12201"
           id="path4537"
           style="fill:#0011ff;fill-opacity:1;stroke:none"
           sodipodi:type="arc" />
      </g>
      <path
         inkscape:connector-curvature="0"
         style="opacity:0.22000002;fill:#0091ff;fill-opacity:1;stroke:none"
         d="m -743.46875,159.40625 0,200 -189.90625,0 0,350 c 0,27.7 22.3,50 50,50 l 580.34375,0 0,-200 208.0625,0 0,-350 c 0,-27.7 -22.3,-50 -50,-50 l -598.5,0 z"
         id="path4539" />
      <g
         transform="matrix(-1,0,0,-1,-1103.2083,961.15112)"
         id="g4541">
        <rect
           rx="30"
           style="fill:#0011ff;fill-opacity:1;stroke:none"
           id="rect4543"
           width="14.285713"
           height="202.85715"
           x="-809.26489"
           y="202.95392"
           ry="10" />
        <path
           sodipodi:type="arc"
           style="fill:#0011ff;fill-opacity:1;stroke:none"
           id="path4545"
           sodipodi:cx="-808.12201"
           sodipodi:cy="185.65131"
           sodipodi:rx="26.263966"
           sodipodi:ry="26.263966"
           d="m -781.85804,185.65131 c 0,14.50518 -11.75878,26.26396 -26.26397,26.26396 -14.50519,0 -26.26396,-11.75878 -26.26396,-26.26396 0,-14.50519 11.75877,-26.26397 26.26396,-26.26397 14.50519,0 26.26397,11.75878 26.26397,26.26397 z"
           transform="translate(6,0)" />
      </g>
    </g>
    <path
       inkscape:connector-curvature="0"
       id="path4547"
       d="m -705.80981,1517.6237 c -11.08,0 -20,8.92 -20,20 l 0,109.5 c 0,11.08 8.92,20 20,20 l 135.65625,0 c 11.19272,23.3124 32.13927,56.1875 38.3125,56.1875 6.17337,0 27.11997,-32.875 38.3125,-56.1875 l 135.625,0 c 11.08,0 20,-8.92 20,-20 l 0,-109.5 c 0,-11.08 -8.92,-20 -20,-20 l -347.90625,0 z"
       style="opacity:0.6;fill:#333333;fill-opacity:1;stroke:none" />
    <rect
       ry="0"
       rx="0"
       y="1437.9336"
       x="-1043.8567"
       height="1024"
       width="1024"
       id="rect4549"
       style="fill:#ffffff;fill-opacity:1;stroke:none"
       inkscape:export-filename="/Users/shoma2da/Desktop/icon7.png"
       inkscape:export-xdpi="90"
       inkscape:export-ydpi="90" />
    <g
       id="g4551"
       transform="translate(-17.684814,1580.4798)">
      <path
         id="path4559"
         d="m -743.46875,159.40625 0,200 -189.90625,0 0,350 c 0,27.7 22.3,50 50,50 l 580.34375,0 0,-200 208.0625,0 0,-350 c 0,-27.7 -22.3,-50 -50,-50 l -598.5,0 z"
         style="opacity:0.73928571;fill:#0091ff;fill-opacity:1;stroke:none"
         inkscape:connector-curvature="0" />
      <g
         transform="translate(62.629456,-42.453493)"
         id="g4553"
         style="fill:#000080">
        <rect
           rx="30"
           style="fill:#000080;fill-opacity:1;stroke:none"
           id="rect4555"
           width="14.285713"
           height="202.85715"
           x="-809.26489"
           y="202.95392"
           ry="10" />
        <path
           sodipodi:type="arc"
           style="fill:#000080;fill-opacity:1;stroke:none"
           id="path4557"
           sodipodi:cx="-808.12201"
           sodipodi:cy="185.65131"
           sodipodi:rx="26.263966"
           sodipodi:ry="26.263966"
           d="m -781.85804,185.65131 c 0,14.50518 -11.75878,26.26396 -26.26397,26.26396 -14.50519,0 -26.26396,-11.75878 -26.26396,-26.26396 0,-14.50519 11.75877,-26.26397 26.26396,-26.26397 14.50519,0 26.26397,11.75878 26.26397,26.26397 z"
           transform="translate(6,0)" />
      </g>
      <g
         id="g4561"
         transform="matrix(-1,0,0,-1,-1103.2083,961.15112)"
         style="fill:#000080">
        <rect
           ry="10"
           y="202.95392"
           x="-809.26489"
           height="202.85715"
           width="14.285713"
           id="rect4563"
           style="fill:#000080;fill-opacity:1;stroke:none"
           rx="30" />
        <path
           transform="translate(6,0)"
           d="m -781.85804,185.65131 c 0,14.50518 -11.75878,26.26396 -26.26397,26.26396 -14.50519,0 -26.26396,-11.75878 -26.26396,-26.26396 0,-14.50519 11.75877,-26.26397 26.26396,-26.26397 14.50519,0 26.26397,11.75878 26.26397,26.26397 z"
           sodipodi:ry="26.263966"
           sodipodi:rx="26.263966"
           sodipodi:cy="185.65131"
           sodipodi:cx="-808.12201"
           id="path4565"
           style="fill:#000080;fill-opacity:1;stroke:none"
           sodipodi:type="arc" />
      </g>
    </g>
    <path
       style="opacity:0.6;fill:#333333;fill-opacity:1;stroke:none"
       d="m -705.80981,1517.6237 c -11.08,0 -20,8.92 -20,20 l 0,109.5 c 0,11.08 8.92,20 20,20 l 135.65625,0 c 11.19272,23.3124 32.13927,56.1875 38.3125,56.1875 6.17337,0 27.11997,-32.875 38.3125,-56.1875 l 135.625,0 c 11.08,0 20,-8.92 20,-20 l 0,-109.5 c 0,-11.08 -8.92,-20 -20,-20 l -347.90625,0 z"
       id="path4567"
       inkscape:connector-curvature="0" />
    <rect
       style="fill:#ececec;fill-opacity:1;stroke:none"
       id="rect4609"
       width="1391.4286"
       height="1282.8572"
       x="-1251.4286"
       y="2729.5051" />
    <rect
       ry="0"
       rx="0"
       y="2903.6479"
       x="-1043.8567"
       height="1024"
       width="1024"
       id="rect4611"
       style="fill:#ffffff;fill-opacity:1;stroke:none"
       inkscape:export-filename="/Users/shoma2da/Desktop/icon2.png"
       inkscape:export-xdpi="90"
       inkscape:export-ydpi="90" />
    <g
       id="g4613"
       transform="translate(-17.684814,3046.1941)">
      <g
         transform="translate(62.629456,-42.453493)"
         id="g4615">
        <rect
           rx="30"
           style="fill:#0011ff;fill-opacity:1;stroke:none"
           id="rect4617"
           width="14.285713"
           height="202.85715"
           x="-809.26489"
           y="202.95392"
           ry="10" />
        <path
           sodipodi:type="arc"
           style="fill:#0011ff;fill-opacity:1;stroke:none"
           id="path4619"
           sodipodi:cx="-808.12201"
           sodipodi:cy="185.65131"
           sodipodi:rx="26.263966"
           sodipodi:ry="26.263966"
           d="m -781.85804,185.65131 c 0,14.50518 -11.75878,26.26396 -26.26397,26.26396 -14.50519,0 -26.26396,-11.75878 -26.26396,-26.26396 0,-14.50519 11.75877,-26.26397 26.26396,-26.26397 14.50519,0 26.26397,11.75878 26.26397,26.26397 z"
           transform="translate(6,0)" />
      </g>
      <path
         id="path4621"
         d="m -743.46875,159.40625 0,200 -189.90625,0 0,350 c 0,27.7 22.3,50 50,50 l 580.34375,0 0,-200 208.0625,0 0,-350 c 0,-27.7 -22.3,-50 -50,-50 l -598.5,0 z"
         style="opacity:0.22000002;fill:#0091ff;fill-opacity:1;stroke:none"
         inkscape:connector-curvature="0" />
      <g
         id="g4623"
         transform="matrix(-1,0,0,-1,-1103.2083,961.15112)">
        <rect
           ry="10"
           y="202.95392"
           x="-809.26489"
           height="202.85715"
           width="14.285713"
           id="rect4625"
           style="fill:#0011ff;fill-opacity:1;stroke:none"
           rx="30" />
        <path
           transform="translate(6,0)"
           d="m -781.85804,185.65131 c 0,14.50518 -11.75878,26.26396 -26.26397,26.26396 -14.50519,0 -26.26396,-11.75878 -26.26396,-26.26396 0,-14.50519 11.75877,-26.26397 26.26396,-26.26397 14.50519,0 26.26397,11.75878 26.26397,26.26397 z"
           sodipodi:ry="26.263966"
           sodipodi:rx="26.263966"
           sodipodi:cy="185.65131"
           sodipodi:cx="-808.12201"
           id="path4627"
           style="fill:#0011ff;fill-opacity:1;stroke:none"
           sodipodi:type="arc" />
      </g>
    </g>
    <path
       style="opacity:0.6;fill:#333333;fill-opacity:1;stroke:none"
       d="m -705.80981,2983.338 c -11.08,0 -20,8.92 -20,20 l 0,109.5 c 0,11.08 8.92,20 20,20 l 135.65625,0 c 11.19272,23.3124 32.13927,56.1875 38.3125,56.1875 6.17337,0 27.11997,-32.875 38.3125,-56.1875 l 135.625,0 c 11.08,0 20,-8.92 20,-20 l 0,-109.5 c 0,-11.08 -8.92,-20 -20,-20 l -347.90625,0 z"
       id="path4629"
       inkscape:connector-curvature="0" />
    <rect
       inkscape:export-ydpi="90"
       inkscape:export-xdpi="90"
       inkscape:export-filename="/Users/shoma2da/Desktop/icon7.png"
       style="fill:#ffffff;fill-opacity:1;stroke:none"
       id="rect4631"
       width="1024"
       height="1024"
       x="-1043.8567"
       y="2903.6479"
       rx="0"
       ry="0" />
    <g
       transform="translate(-17.684814,3046.1941)"
       id="g4633">
      <path
         inkscape:connector-curvature="0"
         style="opacity:0.7392857;fill:#0091ff;fill-opacity:1;stroke:none"
         d="m -743.46875,159.40625 0,200 -189.90625,0 0,350 c 0,27.7 22.3,50 50,50 l 580.34375,0 0,-200 208.0625,0 0,-350 c 0,-27.7 -22.3,-50 -50,-50 l -598.5,0 z"
         id="path4635" />
      <g
         style="fill:#000080"
         id="g4637"
         transform="translate(62.629456,-42.453493)">
        <g
           id="g4651">
          <rect
             rx="30"
             style="fill:#000080;fill-opacity:1;stroke:none"
             id="rect4639"
             width="25.714291"
             height="202.85715"
             x="-820.69348"
             y="202.95392"
             ry="10" />
          <path
             sodipodi:type="arc"
             style="fill:#000080;fill-opacity:1;stroke:none"
             id="path4641"
             sodipodi:cx="-808.12201"
             sodipodi:cy="185.65131"
             sodipodi:rx="26.263966"
             sodipodi:ry="26.263966"
             d="m -781.85804,185.65131 a 26.263966,26.263966 0 1 1 -52.52793,0 26.263966,26.263966 0 1 1 52.52793,0 z"
             transform="matrix(1.652714,0,0,1.652714,527.75822,-129.74863)" />
        </g>
      </g>
      <g
         transform="matrix(-1,0,0,-1,-1107.329,959.88777)"
         id="g4655"
         style="fill:#000080">
        <g
           id="g4657">
          <rect
             ry="10"
             y="202.95392"
             x="-820.69348"
             height="202.85715"
             width="25.714291"
             id="rect4659"
             style="fill:#000080;fill-opacity:1;stroke:none"
             rx="30" />
          <path
             transform="matrix(1.652714,0,0,1.652714,527.75822,-129.74863)"
             d="m -781.85804,185.65131 c 0,14.50518 -11.75878,26.26396 -26.26397,26.26396 -14.50519,0 -26.26396,-11.75878 -26.26396,-26.26396 0,-14.50519 11.75877,-26.26397 26.26396,-26.26397 14.50519,0 26.26397,11.75878 26.26397,26.26397 z"
             sodipodi:ry="26.263966"
             sodipodi:rx="26.263966"
             sodipodi:cy="185.65131"
             sodipodi:cx="-808.12201"
             id="path4661"
             style="fill:#000080;fill-opacity:1;stroke:none"
             sodipodi:type="arc" />
        </g>
      </g>
    </g>
    <path
       inkscape:connector-curvature="0"
       id="path4649"
       d="m -705.80981,2983.338 c -11.08,0 -20,8.92 -20,20 l 0,109.5 c 0,11.08 8.92,20 20,20 l 135.65625,0 c 11.19272,23.3124 32.13927,56.1875 38.3125,56.1875 6.17337,0 27.11997,-32.875 38.3125,-56.1875 l 135.625,0 c 11.08,0 20,-8.92 20,-20 l 0,-109.5 c 0,-11.08 -8.92,-20 -20,-20 l -347.90625,0 z"
       style="opacity:0.6;fill:#333333;fill-opacity:1;stroke:none" />
  </g>
</svg>
